# xmcd CD database file
#
# Track frame offsets:
#	150
#	39226
#	121780
#	204800
#	231767
#
# Disc length: 4606 seconds
#
# Revision: 0
# Processed by: cddbd v1.5.2PL0 Copyright (c) Steve Scherf et al.
# Submitted via: CDex 1.70beta2
#
DISCID=3011fc05
DTITLE=The Group - Live
DYEAR=1986
DGENRE=Jazz
TTITLE0=Joann's Green Satin Dress
TTITLE1=Goodbye Pork Pie Hat
TTITLE2=La Placita
TTITLE3=Shift Below
TTITLE4=Amanpondo
EXTD=YEAR: 1986
EXTT0=
EXTT1=
EXTT2=
EXTT3=
EXTT4=
PLAYORDER=
